# frame.obj - Untitled Music Game
# Generated by assets/models/generate.js - safe to open and edit in Blender.
mtllib frame.mtl

v -2.71 0 -2.72
v 2.71 0 -2.72
v 2.71 0 -2.5
v -2.71 0 -2.5
v -2.71 0.34 -2.72
v 2.71 0.34 -2.72
v 2.71 0.34 -2.5
v -2.71 0.34 -2.5
v -2.71 0 2.5
v 2.71 0 2.5
v 2.71 0 2.72
v -2.71 0 2.72
v -2.71 0.34 2.5
v 2.71 0.34 2.5
v 2.71 0.34 2.72
v -2.71 0.34 2.72
v -2.72 0 -2.71
v -2.5 0 -2.71
v -2.5 0 2.71
v -2.72 0 2.71
v -2.72 0.34 -2.71
v -2.5 0.34 -2.71
v -2.5 0.34 2.71
v -2.72 0.34 2.71
v 2.5 0 -2.71
v 2.72 0 -2.71
v 2.72 0 2.71
v 2.5 0 2.71
v 2.5 0.34 -2.71
v 2.72 0.34 -2.71
v 2.72 0.34 2.71
v 2.5 0.34 2.71

vn 0 -1 0
vn 0 1 0
vn 0 0 1
vn 0 0 -1
vn 1 0 0
vn -1 0 0
vn 0 -1 0
vn 0 1 0
vn 0 0 1
vn 0 0 -1
vn 1 0 0
vn -1 0 0
vn 0 -1 0
vn 0 1 0
vn 0 0 1
vn 0 0 -1
vn 1 0 0
vn -1 0 0
vn 0 -1 0
vn 0 1 0
vn 0 0 1
vn 0 0 -1
vn 1 0 0
vn -1 0 0

o Frame_North
usemtl frame_neon
s off
f 1//1 2//1 3//1 4//1
f 8//2 7//2 6//2 5//2
f 4//3 3//3 7//3 8//3
f 2//4 1//4 5//4 6//4
f 3//5 2//5 6//5 7//5
f 1//6 4//6 8//6 5//6
o Frame_South
usemtl frame_neon
s off
f 9//7 10//7 11//7 12//7
f 16//8 15//8 14//8 13//8
f 12//9 11//9 15//9 16//9
f 10//10 9//10 13//10 14//10
f 11//11 10//11 14//11 15//11
f 9//12 12//12 16//12 13//12
o Frame_West
usemtl frame_neon
s off
f 17//13 18//13 19//13 20//13
f 24//14 23//14 22//14 21//14
f 20//15 19//15 23//15 24//15
f 18//16 17//16 21//16 22//16
f 19//17 18//17 22//17 23//17
f 17//18 20//18 24//18 21//18
o Frame_East
usemtl frame_neon
s off
f 25//19 26//19 27//19 28//19
f 32//20 31//20 30//20 29//20
f 28//21 27//21 31//21 32//21
f 26//22 25//22 29//22 30//22
f 27//23 26//23 30//23 31//23
f 25//24 28//24 32//24 29//24
