# note.obj - Untitled Music Game
# Generated by assets/models/generate.js - safe to open and edit in Blender.
mtllib note.mtl

v 0 0.46 0
v 0.32 0 0
v 0 0 0.32
v -0.32 0 0
v 0 0 -0.32
v 0 -0.46 0

vn 0.57735 0.57735 0.57735
vn -0.57735 0.57735 0.57735
vn -0.57735 0.57735 -0.57735
vn 0.57735 0.57735 -0.57735
vn 0.57735 -0.57735 0.57735
vn -0.57735 -0.57735 0.57735
vn -0.57735 -0.57735 -0.57735
vn 0.57735 -0.57735 -0.57735

o Note
usemtl note_neon
s off
f 1//1 3//1 2//1
f 1//2 4//2 3//2
f 1//3 5//3 4//3
f 1//4 2//4 5//4
f 6//5 2//5 3//5
f 6//6 3//6 4//6
f 6//7 4//7 5//7
f 6//8 5//8 2//8
