# player.obj - Untitled Music Game
# Generated by assets/models/generate.js - safe to open and edit in Blender.
mtllib player.mtl

v -0.45 0 -0.45
v 0.45 0 -0.45
v 0.45 0 0.45
v -0.45 0 0.45
v -0.45 0.16 -0.45
v 0.45 0.16 -0.45
v 0.45 0.16 0.45
v -0.45 0.16 0.45
v -0.25 0.1 -0.25
v 0.25 0.1 -0.25
v 0.25 0.1 0.25
v -0.25 0.1 0.25
v -0.25 0.5 -0.25
v 0.25 0.5 -0.25
v 0.25 0.5 0.25
v -0.25 0.5 0.25

vn 0 -1 0
vn 0 1 0
vn 0 0 1
vn 0 0 -1
vn 1 0 0
vn -1 0 0
vn 0 -1 0
vn 0 1 0
vn 0 0 1
vn 0 0 -1
vn 1 0 0
vn -1 0 0

o Pad
usemtl player_neon
s off
f 1//1 2//1 3//1 4//1
f 8//2 7//2 6//2 5//2
f 4//3 3//3 7//3 8//3
f 2//4 1//4 5//4 6//4
f 3//5 2//5 6//5 7//5
f 1//6 4//6 8//6 5//6
o Core
usemtl player_neon
s off
f 9//7 10//7 11//7 12//7
f 16//8 15//8 14//8 13//8
f 12//9 11//9 15//9 16//9
f 10//10 9//10 13//10 14//10
f 11//11 10//11 14//11 15//11
f 9//12 12//12 16//12 13//12
